# xmcd CD database file
#
# Track frame offsets:
#	150
#	15332
#	37827
#	53360
#	66747
#	87235
#	99050
#	110450
#	125495
#	144165
#	160460
#	176192
#	194552
#	208122
#	225657
#	248826
#	277846
#	302878
#
# Disc length: 4228 seconds
#
# Revision: 0
# Processed by: cddbd v1.5.2PL0 Copyright (c) Steve Scherf et al.
# Submitted via: CDex 1.51
#
DISCID=f0108212
DTITLE=Eric Clapton - Hits - Disc2
DYEAR=1900
DGENRE=Blues
TTITLE0=When you got a friend
TTITLE1=Little queen of shades
TTITLE2=They are red hot
TTITLE3=Me and the devil blues
TTITLE4=Traveling riverside
TTITLE5=Last fair deal gone down
TTITLE6=Stop break os calf blues
TTITLE7=Milkcow's calf blues
TTITLE8=Kind hearted woman blues
TTITLE9=Come on in my kitchen
TTITLE10=If I head Possession over judgement
TTITLE11=Lover in vain
TTITLE12=32-20 blues
TTITLE13=hell hound on my trail song
TTITLE14=Miss you
TTITLE15=Old Love
TTITLE16=Pretty girl
TTITLE17=Blue power
EXTD=
EXTT0=
EXTT1=
EXTT2=
EXTT3=
EXTT4=
EXTT5=
EXTT6=
EXTT7=
EXTT8=
EXTT9=
EXTT10=
EXTT11=
EXTT12=
EXTT13=
EXTT14=
EXTT15=
EXTT16=
EXTT17=
PLAYORDER=
